<svg width="22" height="22" viewBox="0 0 22 22" fill="none" xmlns="http://www.w3.org/2000/svg">
<g clip-path="url(#clip0_20410_136978)">
<path d="M11 1.89062C5.97708 1.89062 1.89062 5.97708 1.89062 11C1.89062 16.0229 5.97708 20.1094 11 20.1094C16.0229 20.1094 20.1094 16.0229 20.1094 11C20.1094 5.97708 16.0229 1.89062 11 1.89062ZM11 19.1641C6.49829 19.1641 2.83594 15.5017 2.83594 11C2.83594 6.49829 6.49829 2.83594 11 2.83594C15.5017 2.83594 19.1641 6.49829 19.1641 11C19.1641 15.5017 15.5017 19.1641 11 19.1641Z" fill="white"/>
<path d="M20.582 0H1.41797C0.636109 0 0 0.636109 0 1.41797V20.582C0 21.3639 0.636109 22 1.41797 22H20.582C21.3639 22 22 21.3639 22 20.582V1.41797C22 0.636109 21.3639 0 20.582 0ZM21.0547 20.582C21.0547 20.8426 20.8426 21.0547 20.582 21.0547H1.41797C1.15736 21.0547 0.945312 20.8426 0.945312 20.582V1.41797C0.945312 1.15736 1.15736 0.945312 1.41797 0.945312H20.582C20.8426 0.945312 21.0547 1.15736 21.0547 1.41797V20.582Z" fill="white"/>
<path d="M19.6367 2.83594C19.8978 2.83594 20.1094 2.62432 20.1094 2.36328C20.1094 2.10224 19.8978 1.89062 19.6367 1.89062C19.3757 1.89062 19.1641 2.10224 19.1641 2.36328C19.1641 2.62432 19.3757 2.83594 19.6367 2.83594Z" fill="white"/>
<path d="M2.36328 2.83594C2.62432 2.83594 2.83594 2.62432 2.83594 2.36328C2.83594 2.10224 2.62432 1.89062 2.36328 1.89062C2.10224 1.89062 1.89062 2.10224 1.89062 2.36328C1.89062 2.62432 2.10224 2.83594 2.36328 2.83594Z" fill="white"/>
<path d="M19.6367 20.1094C19.8978 20.1094 20.1094 19.8978 20.1094 19.6367C20.1094 19.3757 19.8978 19.1641 19.6367 19.1641C19.3757 19.1641 19.1641 19.3757 19.1641 19.6367C19.1641 19.8978 19.3757 20.1094 19.6367 20.1094Z" fill="white"/>
<path d="M2.36328 20.1094C2.62432 20.1094 2.83594 19.8978 2.83594 19.6367C2.83594 19.3757 2.62432 19.1641 2.36328 19.1641C2.10224 19.1641 1.89062 19.3757 1.89062 19.6367C1.89062 19.8978 2.10224 20.1094 2.36328 20.1094Z" fill="white"/>
<path d="M18.2081 10.6238C18.1609 9.7161 17.685 8.87391 16.9349 8.37084C16.2206 7.89178 15.3867 7.63856 14.5235 7.63856C13.4068 7.63856 12.3402 8.06928 11.5379 8.83206C11.606 8.4847 11.7313 8.14821 11.9093 7.83987C12.0906 7.5259 12.3201 7.24776 12.5914 7.0132C13.1597 6.52198 13.3648 5.77187 13.1268 5.05567C12.8872 4.33491 12.2696 3.85375 11.5149 3.80004C11.2193 3.77894 10.9194 3.7761 10.6233 3.79144C9.7156 3.83858 8.87341 4.3145 8.37033 5.06461C7.89128 5.77892 7.63806 6.61273 7.63806 7.47593C7.63806 8.59268 8.06878 9.6593 8.83156 10.4616C8.4842 10.3935 8.14771 10.2682 7.83933 10.0902C7.52535 9.90895 7.24726 9.67945 7.01269 9.4081C6.52143 8.8398 5.77128 8.63471 5.05517 8.87275C4.33441 9.11235 3.85324 9.72998 3.79953 10.4846C3.77848 10.7802 3.7756 11.0801 3.79094 11.3762C3.83808 12.2839 4.314 13.1261 5.0641 13.6292C5.77846 14.1083 6.61227 14.3615 7.47547 14.3615C8.59223 14.3615 9.6588 13.9308 10.4611 13.168C10.393 13.5154 10.2677 13.8518 10.0897 14.1602C9.9084 14.4742 9.6789 14.7523 9.4076 14.9868C8.83934 15.4781 8.63421 16.2281 8.87225 16.9443C9.1118 17.6651 9.72944 18.1463 10.4841 18.2C10.6552 18.2122 10.8276 18.2183 10.9999 18.2183C11.1255 18.2183 11.251 18.215 11.3757 18.2086C12.2834 18.1614 13.1256 17.6855 13.6287 16.9354C14.1077 16.2211 14.361 15.3873 14.361 14.5241C14.361 13.4073 13.9303 12.3407 13.1675 11.5384C13.5149 11.6066 13.8513 11.7318 14.1597 11.9098C14.4737 12.0911 14.7518 12.3206 14.9864 12.5919C15.3423 13.0037 15.8341 13.2248 16.3505 13.2248C16.5468 13.2248 16.7467 13.1928 16.9439 13.1273C17.6647 12.8878 18.1459 12.2701 18.1996 11.5155C18.2205 11.2201 18.2234 10.92 18.2081 10.6238ZM8.58337 7.47597C8.58337 6.80093 8.7812 6.14922 9.15546 5.59119C9.49349 5.08716 10.0606 4.76726 10.6723 4.73551C10.9297 4.7221 11.1907 4.72464 11.4478 4.74294C11.885 4.77405 12.1383 5.07887 12.2297 5.35379C12.3465 5.70523 12.2506 6.05817 11.9731 6.29802C11.6217 6.60181 11.3248 6.9615 11.0906 7.36717C10.8177 7.83978 10.6406 8.36366 10.569 8.90184C10.0856 9.00089 9.6612 9.26347 9.35591 9.62883C8.86001 9.02645 8.58337 8.26728 8.58337 7.47597ZM7.47547 13.4161C6.80047 13.4161 6.14872 13.2183 5.59069 12.8441C5.08666 12.506 4.76676 11.939 4.73501 11.3273C4.72164 11.0697 4.72418 10.8088 4.74244 10.5517C4.77355 10.1146 5.07837 9.86116 5.35328 9.76981C5.70481 9.65307 6.05771 9.74893 6.29752 10.0263C6.60131 10.3777 6.961 10.6747 7.36667 10.9089C7.83928 11.1817 8.36316 11.3589 8.90139 11.4305C9.00043 11.9139 9.26301 12.3383 9.62837 12.6436C9.02595 13.1395 8.26678 13.4161 7.47547 13.4161ZM9.80321 11C9.80321 10.3404 10.3399 9.80371 10.9995 9.80371C11.6591 9.80371 12.1958 10.3404 12.1958 11C12.1958 11.6596 11.6592 12.1963 10.9995 12.1963C10.3398 12.1963 9.80321 11.6597 9.80321 11ZM13.4156 14.524C13.4156 15.1991 13.2178 15.8508 12.8436 16.4088C12.5056 16.9129 11.9385 17.2328 11.3267 17.2645C11.0693 17.2779 10.8083 17.2754 10.5513 17.2571C10.1141 17.226 9.86071 16.9211 9.76931 16.6462C9.65252 16.2947 9.74843 15.9418 10.0258 15.7019C10.3772 15.3982 10.6741 15.0385 10.9084 14.6328C11.1813 14.1602 11.3584 13.6363 11.4301 13.0981C11.9135 12.999 12.3379 12.7365 12.6431 12.3711C13.139 12.9736 13.4156 13.7328 13.4156 14.524ZM17.2565 11.4483C17.2254 11.8854 16.9206 12.1389 16.6457 12.2302C16.2943 12.3469 15.9413 12.2511 15.7014 11.9736C15.3977 11.6222 15.038 11.3253 14.6323 11.0911C14.1597 10.8182 13.6359 10.6411 13.0976 10.5695C12.9986 10.0861 12.736 9.6617 12.3706 9.35637C12.9731 8.86047 13.7322 8.58383 14.5235 8.58383C15.1985 8.58383 15.8503 8.78166 16.4083 9.15587C16.9123 9.49391 17.2322 10.061 17.264 10.6727C17.2774 10.9304 17.2749 11.1913 17.2565 11.4483Z" fill="#33CCCC"/>
</g>
<defs>
<clipPath id="clip0_20410_136978">
<rect width="22" height="22" fill="white"/>
</clipPath>
</defs>
</svg>
