<svg width="34" height="34" viewBox="0 0 34 34" fill="none" xmlns="http://www.w3.org/2000/svg">
<rect x="0.425" y="0.425" width="33.15" height="33.15" rx="16.575" fill="white"/>
<rect x="0.425" y="0.425" width="33.15" height="33.15" rx="16.575" stroke="#FFBB8D" stroke-width="0.85"/>
<path d="M24.1865 25.2202C24.1309 24.7529 24.2421 25.6503 24.1865 25.183C24.148 24.8608 24.1224 24.5364 24.0262 24.2233C23.8059 23.5087 23.3356 22.9892 22.7112 22.6579C21.7469 22.1452 20.7827 21.6302 19.8184 21.1175C19.7072 21.0585 19.5875 21.0041 19.4784 20.936C19.0594 20.6728 18.8669 20.0875 18.7429 19.6179C19.6538 19.0031 20.2845 18.0094 20.6394 16.9386C21.2552 16.8819 21.6978 16.4327 21.9137 15.836C22.1168 15.2756 22.3157 14.1481 21.3856 14.316C21.4989 13.3336 21.5802 12.3399 21.5545 11.3508C21.5417 10.8948 21.5203 10.407 21.3664 9.97598C21.1996 9.50863 20.8746 8.85298 20.4042 8.66014C20.8383 7.32842 19.596 6.65235 18.5569 6.52077C17.1949 6.34608 15.7688 6.70907 14.5159 7.25809C13.6115 7.65511 12.8974 8.34253 12.5018 9.29991C12.1555 10.1371 12.0571 11.0718 12.0828 11.9792C12.1041 12.7619 12.2153 13.5446 12.3971 14.3024C11.5119 14.2502 11.8155 15.4435 12.0208 15.9426C12.2453 16.4916 12.6836 16.8887 13.2544 16.9408C13.6436 18.1069 14.3107 19.053 15.1488 19.6224C15.0376 20.0512 14.873 20.5344 14.548 20.8362C14.4454 20.9315 14.3278 20.9859 14.208 21.0494C13.7312 21.3035 13.2544 21.5576 12.7776 21.8117C12.288 22.0726 11.8005 22.3312 11.3109 22.5921C10.7785 22.8757 10.3252 23.2228 10.0387 23.7991C9.69665 24.4865 9.82237 25.101 9.82237 25.101C10.0041 25.3142 10.2654 25.4458 10.4963 25.5865C10.755 25.743 11.018 25.8905 11.2831 26.0334C13.325 27.1133 15.6106 27.6918 17.8941 27.4854C19.1684 27.3697 20.4171 27.0294 21.5994 26.5189C22.2173 26.2512 22.816 25.9381 23.3954 25.5887C23.7886 25.4298 24.198 25.2801 24.1865 25.2202ZM17.5926 6.87015C18.1998 6.84292 18.9033 6.87242 19.4314 7.23541C19.6965 7.4169 19.8847 7.68688 19.9488 8.01583C19.9894 8.22682 20.0386 8.98456 19.6559 8.8439C19.4742 8.77584 19.5233 8.59435 19.5383 8.43781C19.5554 8.26312 19.5447 8.08389 19.4699 7.92509C19.3501 7.67553 19.1043 7.53714 18.8627 7.45547C18.5612 7.35338 18.2362 7.32615 17.9219 7.32162C17.768 7.31935 17.5178 7.38741 17.4194 7.22179C17.3339 7.07206 17.4323 6.87922 17.5926 6.87015ZM16.5728 6.99039C16.7053 6.94502 16.9704 6.88376 17.0966 6.94048C17.3446 7.05391 17.1992 7.3375 17.0004 7.37833C16.8828 7.40329 16.6861 7.46454 16.5621 7.43278C16.3483 7.37833 16.3504 7.03803 16.5728 6.99039ZM13.6094 16.6482C13.6094 16.4553 13.2886 16.4916 13.1839 16.4735C12.9765 16.4327 12.7905 16.3192 12.6472 16.1559C12.442 15.9199 12.3372 15.5978 12.2645 15.2915C12.2367 15.1758 12.1661 14.9399 12.2303 14.8219C12.3778 14.5451 12.923 15.0442 13.1283 15.0193C13.3207 14.9943 13.3143 14.7992 13.3143 14.6427C13.3122 14.3432 13.3635 14.046 13.3635 13.7488H13.3656C13.3314 12.9366 13.31 11.8613 13.789 11.167C14.0584 10.7791 14.471 10.7224 14.8879 10.8426C15.4096 10.9946 15.8672 11.319 16.3974 11.4597C16.8593 11.5822 17.2505 11.5459 17.7059 11.3984C18.2105 11.2328 18.6724 10.8857 19.1962 10.7972C20.0792 10.6498 20.3764 11.5777 20.4769 12.3286C20.5432 12.8096 20.5111 13.2837 20.5282 13.767C20.5368 14.0256 20.5774 14.2842 20.5795 14.5451C20.5817 14.7062 20.5346 14.9194 20.7036 15.0011C20.8832 15.0896 21.1932 14.8287 21.3749 14.7811C21.4433 14.7629 21.5866 14.7175 21.6465 14.7833C21.7662 14.9172 21.6229 15.3233 21.5866 15.4526C21.4669 15.8609 21.2702 16.2716 20.8682 16.4281C20.7399 16.478 20.6202 16.4667 20.4897 16.4916C20.2952 16.5279 20.2759 16.6913 20.2139 16.866C19.8996 17.7712 19.3672 18.6242 18.6082 19.1732C17.6397 19.8743 16.421 19.9219 15.4182 19.2685C14.5266 18.6855 13.9279 17.6872 13.6094 16.6482ZM16.9384 23.9307C15.7646 23.9307 14.8067 22.7509 14.7404 21.2445C15.1509 20.9201 15.3947 20.3461 15.5336 19.847C16.4295 20.303 17.4643 20.3008 18.3602 19.8448C18.4992 20.3507 18.7451 20.9224 19.1534 21.2445C19.085 22.7532 18.1272 23.9307 16.9384 23.9307Z" fill="#3C3C3C"/>
</svg>
