<svg width="137" height="67" viewBox="0 0 137 67" fill="none" xmlns="http://www.w3.org/2000/svg">
<path d="M2.99432 13.4364H14.8364L24.8818 37.9318H25.3455L35.3909 13.4364H47.233V53H37.9216V28.6977H37.5932L28.0886 52.7489H22.1386L12.6341 28.5625H12.3057V53H2.99432V13.4364ZM53.1974 13.4364H65.0395L75.0849 37.9318H75.5486L85.594 13.4364H97.4361V53H88.1247V28.6977H87.7963L78.2918 52.7489H72.3418L62.8372 28.5625H62.5088V53H53.1974V13.4364ZM124.786 25.2977C124.657 23.8811 124.084 22.7799 123.066 21.9943C122.062 21.1958 120.626 20.7966 118.759 20.7966C117.522 20.7966 116.492 20.9576 115.668 21.2795C114.843 21.6015 114.225 22.0458 113.813 22.6125C113.401 23.1663 113.188 23.8038 113.176 24.525C113.15 25.1174 113.266 25.639 113.523 26.0898C113.794 26.5405 114.18 26.9398 114.682 27.2875C115.198 27.6223 115.816 27.9186 116.537 28.1761C117.258 28.4337 118.07 28.6591 118.971 28.8523L122.371 29.625C124.329 30.05 126.054 30.6167 127.548 31.325C129.055 32.0333 130.317 32.8769 131.335 33.8557C132.365 34.8345 133.144 35.9614 133.672 37.2364C134.2 38.5114 134.471 39.9409 134.484 41.525C134.471 44.0235 133.84 46.1678 132.59 47.958C131.341 49.7481 129.545 51.1197 127.201 52.0727C124.87 53.0258 122.055 53.5023 118.759 53.5023C115.449 53.5023 112.564 53.0064 110.104 52.0148C107.644 51.0231 105.732 49.5163 104.366 47.4943C103.001 45.4723 102.299 42.9159 102.261 39.825H111.418C111.495 41.1 111.836 42.1625 112.441 43.0125C113.047 43.8625 113.877 44.5064 114.934 44.9443C116.002 45.3822 117.239 45.6011 118.643 45.6011C119.93 45.6011 121.025 45.4273 121.927 45.0795C122.841 44.7318 123.543 44.2489 124.032 43.6307C124.522 43.0125 124.773 42.3042 124.786 41.5057C124.773 40.7587 124.541 40.1212 124.09 39.5932C123.64 39.0523 122.944 38.5886 122.004 38.2023C121.077 37.803 119.892 37.436 118.449 37.1011L114.315 36.1352C110.89 35.3496 108.191 34.0811 106.221 32.3295C104.251 30.5651 103.272 28.1826 103.285 25.1818C103.272 22.7348 103.929 20.5905 105.255 18.7489C106.582 16.9072 108.417 15.4712 110.761 14.4409C113.105 13.4106 115.777 12.8955 118.778 12.8955C121.843 12.8955 124.502 13.417 126.756 14.4602C129.023 15.4905 130.781 16.9394 132.03 18.8068C133.279 20.6742 133.917 22.8379 133.943 25.2977H124.786Z" fill="#FF8201"/>
<path d="M2.99432 13.4364H14.8364L24.8818 37.9318H25.3455L35.3909 13.4364H47.233V53H37.9216V28.6977H37.5932L28.0886 52.7489H22.1386L12.6341 28.5625H12.3057V53H2.99432V13.4364ZM53.1974 13.4364H65.0395L75.0849 37.9318H75.5486L85.594 13.4364H97.4361V53H88.1247V28.6977H87.7963L78.2918 52.7489H72.3418L62.8372 28.5625H62.5088V53H53.1974V13.4364ZM124.786 25.2977C124.657 23.8811 124.084 22.7799 123.066 21.9943C122.062 21.1958 120.626 20.7966 118.759 20.7966C117.522 20.7966 116.492 20.9576 115.668 21.2795C114.843 21.6015 114.225 22.0458 113.813 22.6125C113.401 23.1663 113.188 23.8038 113.176 24.525C113.15 25.1174 113.266 25.639 113.523 26.0898C113.794 26.5405 114.18 26.9398 114.682 27.2875C115.198 27.6223 115.816 27.9186 116.537 28.1761C117.258 28.4337 118.07 28.6591 118.971 28.8523L122.371 29.625C124.329 30.05 126.054 30.6167 127.548 31.325C129.055 32.0333 130.317 32.8769 131.335 33.8557C132.365 34.8345 133.144 35.9614 133.672 37.2364C134.2 38.5114 134.471 39.9409 134.484 41.525C134.471 44.0235 133.84 46.1678 132.59 47.958C131.341 49.7481 129.545 51.1197 127.201 52.0727C124.87 53.0258 122.055 53.5023 118.759 53.5023C115.449 53.5023 112.564 53.0064 110.104 52.0148C107.644 51.0231 105.732 49.5163 104.366 47.4943C103.001 45.4723 102.299 42.9159 102.261 39.825H111.418C111.495 41.1 111.836 42.1625 112.441 43.0125C113.047 43.8625 113.877 44.5064 114.934 44.9443C116.002 45.3822 117.239 45.6011 118.643 45.6011C119.93 45.6011 121.025 45.4273 121.927 45.0795C122.841 44.7318 123.543 44.2489 124.032 43.6307C124.522 43.0125 124.773 42.3042 124.786 41.5057C124.773 40.7587 124.541 40.1212 124.09 39.5932C123.64 39.0523 122.944 38.5886 122.004 38.2023C121.077 37.803 119.892 37.436 118.449 37.1011L114.315 36.1352C110.89 35.3496 108.191 34.0811 106.221 32.3295C104.251 30.5651 103.272 28.1826 103.285 25.1818C103.272 22.7348 103.929 20.5905 105.255 18.7489C106.582 16.9072 108.417 15.4712 110.761 14.4409C113.105 13.4106 115.777 12.8955 118.778 12.8955C121.843 12.8955 124.502 13.417 126.756 14.4602C129.023 15.4905 130.781 16.9394 132.03 18.8068C133.279 20.6742 133.917 22.8379 133.943 25.2977H124.786Z" fill="url(#paint0_linear_20325_65429)"/>
<path d="M4.37808 62.1668H5.22784L6.36583 64.9444H6.41075L7.54875 62.1668H8.3985V66H7.73217V63.3665H7.69661L6.63723 65.9888H6.13936L5.07997 63.3609H5.04441V66H4.37808V62.1668ZM10.5429 66H9.80175L11.1513 62.1668H12.0085L13.3599 66H12.6187L11.5948 62.9529H11.5649L10.5429 66ZM10.5673 64.497H12.5887V65.0548H10.5673V64.497ZM15.4552 62.1668V66H14.7608V62.1668H15.4552ZM20.2532 62.1668V66H19.6356L17.8294 63.389H17.7976V66H17.1032V62.1668H17.7246L19.5289 64.7796H19.5626V62.1668H20.2532ZM21.7374 62.7489V62.1668H24.7958V62.7489H23.611V66H22.9222V62.7489H21.7374ZM26.2814 66V62.1668H28.7745V62.7489H26.9758V63.7895H28.6454V64.3716H26.9758V65.4179H28.7895V66H26.2814ZM33.529 62.1668V66H32.9114L31.1052 63.389H31.0734V66H30.379V62.1668H31.0004L32.8047 64.7796H32.8384V62.1668H33.529ZM35.674 66H34.9328L36.2823 62.1668H37.1395L38.4909 66H37.7497L36.7259 62.9529H36.6959L35.674 66ZM35.6983 64.497H37.7197V65.0548H35.6983V64.497ZM43.0419 62.1668V66H42.4242L40.618 63.389H40.5862V66H39.8918V62.1668H40.5132L42.3175 64.7796H42.3512V62.1668H43.0419ZM47.9756 63.4601H47.2756C47.2556 63.3453 47.2188 63.2436 47.1652 63.155C47.1115 63.0652 47.0448 62.9891 46.9649 62.9267C46.885 62.8643 46.7939 62.8175 46.6916 62.7863C46.5906 62.7538 46.4814 62.7376 46.3641 62.7376C46.1557 62.7376 45.971 62.79 45.8101 62.8948C45.6491 62.9984 45.5231 63.1506 45.432 63.3515C45.3409 63.5512 45.2953 63.7951 45.2953 64.0834C45.2953 64.3766 45.3409 64.6237 45.432 64.8246C45.5243 65.0242 45.6503 65.1752 45.8101 65.2775C45.971 65.3786 46.1551 65.4291 46.3622 65.4291C46.477 65.4291 46.5843 65.4142 46.6841 65.3842C46.7852 65.353 46.8757 65.3075 46.9555 65.2476C47.0366 65.1877 47.1046 65.1141 47.1595 65.0267C47.2157 64.9394 47.2544 64.8395 47.2756 64.7272L47.9756 64.731C47.9494 64.9132 47.8926 65.0841 47.8053 65.2438C47.7192 65.4036 47.6063 65.5446 47.4665 65.6668C47.3268 65.7879 47.1633 65.8827 46.9761 65.9513C46.789 66.0187 46.5812 66.0524 46.3528 66.0524C46.0159 66.0524 45.7152 65.9744 45.4507 65.8184C45.1862 65.6625 44.9778 65.4372 44.8255 65.1428C44.6733 64.8483 44.5972 64.4952 44.5972 64.0834C44.5972 63.6704 44.6739 63.3172 44.8274 63.024C44.9809 62.7295 45.1899 62.5043 45.4544 62.3483C45.719 62.1923 46.0184 62.1143 46.3528 62.1143C46.5662 62.1143 46.7646 62.1443 46.948 62.2042C47.1315 62.2641 47.2949 62.3521 47.4384 62.4681C47.5819 62.5829 47.6998 62.7239 47.7922 62.8911C47.8858 63.0571 47.9469 63.2467 47.9756 63.4601ZM49.5075 66V62.1668H52.0007V62.7489H50.2019V63.7895H51.8715V64.3716H50.2019V65.4179H52.0156V66H49.5075ZM55.8085 62.1668H56.6583L57.7963 64.9444H57.8412L58.9792 62.1668H59.8289V66H59.1626V63.3665H59.127L58.0677 65.9888H57.5698L56.5104 63.3609H56.4748V66H55.8085V62.1668ZM61.9734 66H61.2322L62.5817 62.1668H63.4389L64.7903 66H64.0491L63.0253 62.9529H62.9953L61.9734 66ZM61.9977 64.497H64.0192V65.0548H61.9977V64.497ZM69.3413 62.1668V66H68.7236L66.9174 63.389H66.8856V66H66.1912V62.1668H66.8126L68.6169 64.7796H68.6506V62.1668H69.3413ZM71.4862 66H70.745L72.0945 62.1668H72.9517L74.3031 66H73.5619L72.5381 62.9529H72.5082L71.4862 66ZM71.5105 64.497H73.532V65.0548H71.5105V64.497ZM78.0918 63.3908C78.0607 63.2898 78.0176 63.1993 77.9627 63.1194C77.909 63.0383 77.8442 62.9691 77.768 62.9117C77.6932 62.8543 77.6071 62.8112 77.5098 62.7825C77.4124 62.7526 77.3064 62.7376 77.1916 62.7376C76.9857 62.7376 76.8022 62.7894 76.6413 62.893C76.4803 62.9965 76.3537 63.1488 76.2613 63.3497C76.1702 63.5493 76.1247 63.7926 76.1247 64.0796C76.1247 64.3691 76.1702 64.6143 76.2613 64.8152C76.3524 65.0161 76.4791 65.169 76.6413 65.2738C76.8035 65.3773 76.9919 65.4291 77.2065 65.4291C77.4012 65.4291 77.5696 65.3917 77.7119 65.3168C77.8554 65.242 77.9658 65.1359 78.0432 64.9986C78.1205 64.8601 78.1592 64.6979 78.1592 64.512L78.3165 64.5363H77.2758V63.9935H78.8312V64.454C78.8312 64.7821 78.7613 65.066 78.6215 65.3056C78.4818 65.5452 78.2896 65.7299 78.0451 65.8596C77.8005 65.9881 77.5197 66.0524 77.2028 66.0524C76.8497 66.0524 76.5396 65.9732 76.2726 65.8147C76.0068 65.655 75.799 65.4285 75.6493 65.1353C75.5008 64.8408 75.4265 64.4914 75.4265 64.0871C75.4265 63.7777 75.4702 63.5013 75.5576 63.258C75.6462 63.0146 75.7697 62.8081 75.9282 62.6384C76.0866 62.4675 76.2726 62.3377 76.4859 62.2491C76.6993 62.1593 76.9314 62.1143 77.1822 62.1143C77.3943 62.1143 77.5921 62.1455 77.7755 62.2079C77.959 62.2691 78.1218 62.3564 78.264 62.47C78.4075 62.5835 78.5255 62.7183 78.6178 62.8743C78.7101 63.0302 78.7707 63.2024 78.7994 63.3908H78.0918ZM80.3987 66V62.1668H82.8918V62.7489H81.0931V63.7895H82.7626V64.3716H81.0931V65.4179H82.9067V66H80.3987ZM84.4962 62.1668H85.346L86.484 64.9444H86.5289L87.6669 62.1668H88.5166V66H87.8503V63.3665H87.8148L86.7554 65.9888H86.2575L85.1981 63.3609H85.1626V66H84.4962V62.1668ZM90.1688 66V62.1668H92.6619V62.7489H90.8632V63.7895H92.5328V64.3716H90.8632V65.4179H92.6769V66H90.1688ZM97.4165 62.1668V66H96.7988L94.9926 63.389H94.9608V66H94.2664V62.1668H94.8878L96.6921 64.7796H96.7258V62.1668H97.4165ZM98.9007 62.7489V62.1668H101.959V62.7489H100.774V66H100.085V62.7489H98.9007ZM107.731 63.2205C107.714 63.0571 107.64 62.9298 107.51 62.8387C107.382 62.7476 107.215 62.7021 107.009 62.7021C106.864 62.7021 106.74 62.7239 106.636 62.7676C106.533 62.8112 106.454 62.8705 106.399 62.9454C106.344 63.0202 106.316 63.1057 106.314 63.2018C106.314 63.2817 106.332 63.3509 106.369 63.4096C106.406 63.4682 106.457 63.5181 106.52 63.5593C106.584 63.5992 106.654 63.6329 106.732 63.6604C106.809 63.6878 106.887 63.7109 106.966 63.7296L107.325 63.8195C107.47 63.8532 107.609 63.8987 107.743 63.9561C107.877 64.0135 107.998 64.0859 108.104 64.1732C108.211 64.2606 108.296 64.366 108.358 64.4895C108.421 64.6131 108.452 64.7578 108.452 64.9238C108.452 65.1484 108.394 65.3462 108.28 65.5171C108.165 65.6868 107.999 65.8197 107.782 65.9158C107.566 66.0106 107.305 66.058 106.998 66.058C106.699 66.058 106.44 66.0119 106.221 65.9195C106.002 65.8272 105.831 65.6924 105.708 65.5152C105.586 65.338 105.52 65.1222 105.51 64.8676H106.193C106.203 65.0011 106.244 65.1122 106.316 65.2008C106.389 65.2894 106.483 65.3555 106.599 65.3992C106.716 65.4429 106.847 65.4647 106.992 65.4647C107.143 65.4647 107.275 65.4422 107.389 65.3973C107.504 65.3511 107.593 65.2875 107.658 65.2064C107.723 65.124 107.756 65.028 107.757 64.9182C107.756 64.8183 107.727 64.736 107.67 64.6711C107.612 64.605 107.532 64.5501 107.428 64.5064C107.326 64.4615 107.206 64.4215 107.069 64.3866L106.633 64.2743C106.317 64.1932 106.067 64.0703 105.884 63.9056C105.702 63.7396 105.611 63.5194 105.611 63.2449C105.611 63.019 105.672 62.8212 105.794 62.6515C105.918 62.4818 106.085 62.3502 106.298 62.2566C106.51 62.1618 106.75 62.1143 107.018 62.1143C107.29 62.1143 107.529 62.1618 107.733 62.2566C107.939 62.3502 108.101 62.4806 108.218 62.6478C108.335 62.8137 108.396 63.0047 108.399 63.2205H107.731ZM109.705 62.1668H110.489L111.427 63.8625H111.464L112.402 62.1668H113.186L111.792 64.57V66H111.099V64.57L109.705 62.1668ZM116.657 63.2205C116.64 63.0571 116.566 62.9298 116.436 62.8387C116.308 62.7476 116.141 62.7021 115.935 62.7021C115.79 62.7021 115.666 62.7239 115.562 62.7676C115.459 62.8112 115.38 62.8705 115.325 62.9454C115.27 63.0202 115.242 63.1057 115.24 63.2018C115.24 63.2817 115.259 63.3509 115.295 63.4096C115.332 63.4682 115.383 63.5181 115.446 63.5593C115.51 63.5992 115.58 63.6329 115.658 63.6604C115.735 63.6878 115.813 63.7109 115.892 63.7296L116.251 63.8195C116.396 63.8532 116.535 63.8987 116.669 63.9561C116.803 64.0135 116.924 64.0859 117.03 64.1732C117.137 64.2606 117.222 64.366 117.284 64.4895C117.347 64.6131 117.378 64.7578 117.378 64.9238C117.378 65.1484 117.321 65.3462 117.206 65.5171C117.091 65.6868 116.925 65.8197 116.708 65.9158C116.492 66.0106 116.231 66.058 115.924 66.058C115.625 66.058 115.366 66.0119 115.147 65.9195C114.928 65.8272 114.758 65.6924 114.634 65.5152C114.512 65.338 114.446 65.1222 114.436 64.8676H115.119C115.129 65.0011 115.17 65.1122 115.242 65.2008C115.315 65.2894 115.409 65.3555 115.525 65.3992C115.642 65.4429 115.773 65.4647 115.918 65.4647C116.069 65.4647 116.201 65.4422 116.315 65.3973C116.43 65.3511 116.519 65.2875 116.584 65.2064C116.649 65.124 116.682 65.028 116.684 64.9182C116.682 64.8183 116.653 64.736 116.596 64.6711C116.538 64.605 116.458 64.5501 116.354 64.5064C116.252 64.4615 116.132 64.4215 115.995 64.3866L115.559 64.2743C115.243 64.1932 114.993 64.0703 114.81 63.9056C114.628 63.7396 114.537 63.5194 114.537 63.2449C114.537 63.019 114.598 62.8212 114.72 62.6515C114.844 62.4818 115.011 62.3502 115.224 62.2566C115.436 62.1618 115.676 62.1143 115.944 62.1143C116.216 62.1143 116.455 62.1618 116.659 62.2566C116.865 62.3502 117.027 62.4806 117.144 62.6478C117.261 62.8137 117.322 63.0047 117.326 63.2205H116.657ZM118.725 62.7489V62.1668H121.783V62.7489H120.598V66H119.909V62.7489H118.725ZM123.269 66V62.1668H125.762V62.7489H123.963V63.7895H125.632V64.3716H123.963V65.4179H125.777V66H123.269ZM127.366 62.1668H128.216L129.354 64.9444H129.399L130.537 62.1668H131.386V66H130.72V63.3665H130.685L129.625 65.9888H129.127L128.068 63.3609H128.032V66H127.366V62.1668Z" fill="#6A6666"/>
<defs>
<linearGradient id="paint0_linear_20325_65429" x1="139.267" y1="62.724" x2="17.1608" y2="-18.0794" gradientUnits="userSpaceOnUse">
<stop stop-color="#FE6500"/>
<stop offset="0.595" stop-color="#FF8A00"/>
</linearGradient>
</defs>
</svg>
