<svg width="41" height="41" viewBox="0 0 41 41" fill="none" xmlns="http://www.w3.org/2000/svg">
<path d="M20.9996 20.2637C19.4791 20.2637 18.2422 21.5006 18.2422 23.021C18.2422 24.5415 19.4791 25.7784 20.9996 25.7784C22.52 25.7784 23.7569 24.5415 23.7569 23.021C23.7569 21.5006 22.52 20.2637 20.9996 20.2637ZM20.9996 24.3722C20.2545 24.3722 19.6484 23.7661 19.6484 23.021C19.6484 22.276 20.2545 21.6699 20.9996 21.6699C21.7446 21.6699 22.3507 22.2761 22.3507 23.021C22.3507 23.766 21.7446 24.3722 20.9996 24.3722Z" fill="black"/>
<path d="M21.6491 27.8295C21.4077 27.2499 20.5514 27.2677 20.3381 27.8615C20.237 28.1431 20.3311 28.4693 20.5678 28.6527C20.7968 28.83 21.1166 28.8493 21.3645 28.6995C21.6573 28.5226 21.7808 28.1454 21.6491 27.8295Z" fill="black"/>
<path d="M17.4289 25.3919C17.3136 25.1155 17.0265 24.9376 16.7277 24.9599C16.4213 24.9827 16.1619 25.2082 16.0939 25.5073C15.9543 26.1215 16.6688 26.5952 17.1836 26.2356C17.4505 26.0492 17.552 25.6924 17.4289 25.3919Z" fill="black"/>
<path d="M24.571 25.9307C24.716 26.2846 25.1366 26.4582 25.4893 26.3111C25.8431 26.1635 26.0166 25.7478 25.8697 25.3928C25.7231 25.0388 25.305 24.8669 24.9514 25.0131C24.5982 25.1592 24.4237 25.5772 24.571 25.9307Z" fill="black"/>
<path d="M17.4291 20.5194C17.2815 20.1657 16.8652 19.9926 16.5107 20.139C16.1565 20.2854 15.9839 20.7034 16.1304 21.0573C16.2771 21.4114 16.6944 21.5844 17.0487 21.4377C17.4019 21.2914 17.5764 20.873 17.4291 20.5194Z" fill="black"/>
<path d="M21.5841 4.56453C21.2257 4.0163 20.3448 4.25522 20.2987 4.90315C20.2548 5.52078 21.0104 5.89329 21.472 5.47563C21.727 5.2448 21.7745 4.84992 21.5841 4.56453Z" fill="black"/>
<path d="M4.41504 7.69238C4.49941 8.48513 5.17255 9.10443 5.9873 9.10449H6.17969L7.9375 10.5107H6.88281C7.21511 12.7494 7.91539 14.8989 8.96973 16.9102L9.98828 18.8535H12.5244C13.6088 18.8534 14.6512 18.3061 15.2686 17.4141C15.4231 17.1907 15.5909 16.9782 15.7695 16.7764L16.8701 17.6572C16.711 17.8329 16.5617 18.0185 16.4258 18.2148C15.9575 18.8914 15.3112 19.4421 14.5684 19.7959C14.0693 20.7892 13.8066 21.8995 13.8066 23.0215C13.8067 26.9881 17.0334 30.2148 21 30.2148C23.8482 30.2148 26.3148 28.5513 27.4795 26.1445L28.5996 27.04C27.1543 29.7623 24.291 31.6211 21 31.6211C16.2579 31.6211 12.3995 27.7635 12.3994 23.0215C12.3994 22.0752 12.5573 21.1359 12.8594 20.2471C12.7477 20.255 12.6354 20.2598 12.5234 20.2598H10.0176C9.7926 21.1593 9.67871 22.0855 9.67871 23.0215C9.67877 29.2643 14.7573 34.3428 21 34.3428C25.1485 34.3428 28.7803 32.0985 30.752 28.7617L31.8604 29.6494C29.6214 33.3046 25.5915 35.749 21 35.749C13.9818 35.749 8.27248 30.0396 8.27246 23.0215C8.27246 21.8358 8.43556 20.6636 8.75684 19.5322L7.72461 17.5635C6.5568 15.3358 5.79511 12.9493 5.45605 10.4629C4.06174 10.2116 3.00023 8.99005 3 7.52441V6.56055L4.41504 7.69238ZM38.2969 4.25195C38.6851 4.25195 39 4.56674 39 4.95508V7.52344C39 8.98926 37.9384 10.2115 36.5439 10.4629C36.205 12.9493 35.4433 15.3357 34.2754 17.5635L33.2432 19.5322C33.5644 20.6636 33.7275 21.8358 33.7275 23.0215C33.7275 23.9683 33.6228 24.891 33.4258 25.7793L32.1836 24.7861C32.274 24.211 32.3213 23.6217 32.3213 23.0215C32.3213 22.0855 32.2074 21.1592 31.9824 20.2598H29.4766C29.3647 20.2598 29.2523 20.255 29.1406 20.2471C29.4099 21.0395 29.5624 21.8721 29.5928 22.7139L28.0186 21.4541C27.8907 20.8794 27.6954 20.3208 27.4316 19.7959C27.4295 19.7948 27.427 19.794 27.4248 19.793C26.6919 19.4415 26.0512 18.9024 25.5752 18.2148C25.1922 17.6616 24.7069 17.1791 24.1523 16.7979C23.2213 16.1602 22.1094 15.8282 20.9873 15.8291L19.4434 14.5938C19.9508 14.4756 20.4727 14.4121 21 14.4121C23.2669 14.4121 25.442 15.5515 26.7314 17.415C27.3491 18.3076 28.3915 18.8534 29.4756 18.8535H32.0117L33.0303 16.9102C34.0846 14.8989 34.785 12.7494 35.1172 10.5107H14.3389L12.5811 9.10449H36.0127C36.8841 9.10449 37.5935 8.39586 37.5938 7.52441V5.6582H24.0293C23.6411 5.65818 23.3262 5.3434 23.3262 4.95508C23.3262 4.56676 23.6411 4.25198 24.0293 4.25195H38.2969ZM17.8623 4.25195C18.2506 4.25195 18.5654 4.56674 18.5654 4.95508C18.5654 5.34341 18.2506 5.6582 17.8623 5.6582H8.27344L6.51562 4.25195H17.8623Z" fill="black"/>
<path d="M1 4L36 32" stroke="black" stroke-width="2" stroke-linecap="round"/>
</svg>
